<svg xmlns="http://www.w3.org/2000/svg" width="176" height="120" viewBox="0 0 176 120"><title>Car</title><path d="M48.54,73a2,2,0,0,0,2.63-1A10,10,0,1,0,42,78a10.17,10.17,0,0,0,4-.84,2,2,0,0,0-1.6-3.67,6,6,0,1,1,3.1-3.1A2,2,0,0,0,48.54,73Z" fill="#ffffff"></path><path d="M140.54,73a2,2,0,0,0,2.63-1A10,10,0,1,0,134,78a10.17,10.17,0,0,0,4-.84,2,2,0,0,0-1.6-3.67,6,6,0,1,1,3.1-3.1A2,2,0,0,0,140.54,73Z" fill="#ffffff"></path><path d="M154.71,49.42c3.32-.24,7-2.89,7.27-6.48,0-.62,0-1.26,0-1.91-.24-3.56-3.95-6.21-7.29-6.46L145.75,34a7.17,7.17,0,0,0-5.2,1.85l-.27.26a87.92,87.92,0,0,0-7.38-17c-2-3.41-6.26-6.2-9.63-6.24C121.9,12.79,110.48,12,88,12s-33.76.78-35.27.89c-3.37,0-7.67,2.83-9.64,6.26a88.06,88.06,0,0,0-7.37,17l-.27-.26A7.19,7.19,0,0,0,30.27,34l-9,.56c-3.32.24-7,2.89-7.27,6.48,0,.62,0,1.26,0,1.91.24,3.56,3.95,6.21,7.29,6.46l6.52.4a18.63,18.63,0,0,0-4.57,6.75,88.11,88.11,0,0,0-5.18,25.16c-.21,4.09-.22,8.7,2.45,11.6a2,2,0,1,0,2.94-2.71C21.93,89,21.89,85.47,22.08,82A84,84,0,0,1,27,58c2.23-6,9.64-10.45,15.15-10.86C57.07,46,72.62,46,87.66,46c15.3,0,31.11,0,46.17,1.09,5.51.4,12.91,4.86,15.14,10.84a84,84,0,0,1,4.95,24c.19,3.55.15,7.06-1.42,8.72-.85.89-2.24,1.33-4.23,1.33H138a8,8,0,0,0-8,8v4.13a4,4,0,0,0,4.08,3.87h15.84a4,4,0,0,0,4.08-3.87V94.57a7.4,7.4,0,0,0,1.4-1.15c2.74-2.89,2.74-7.54,2.52-11.68a88,88,0,0,0-5.19-25.18,18.63,18.63,0,0,0-4.55-6.73l6.51-.4ZM150,104H134v-4a4,4,0,0,1,4-4h10.27a13.72,13.72,0,0,0,1.73-.11Zm-7.8-60.25-.18-.86c0-.6,0-1.21,0-1.79a3.34,3.34,0,0,1,1.16-2.21,3.42,3.42,0,0,1,2.13-.88h.17l8.94.56c1.65.12,3.49,1.51,3.56,2.68a11.85,11.85,0,0,1,0,1.46c-.07,1.2-1.9,2.6-3.55,2.72l-9,.56a3.33,3.33,0,0,1-2.27-.87A3.68,3.68,0,0,1,142.2,43.74ZM30.52,46l-8.94-.56c-1.65-.12-3.49-1.51-3.56-2.68a11.85,11.85,0,0,1,0-1.46c.07-1.21,1.91-2.6,3.54-2.72l9-.56h.16a3.42,3.42,0,0,1,2.11.88A3.33,3.33,0,0,1,34,41.06c0,.61,0,1.23,0,1.82l-.18.84a3.47,3.47,0,0,1-1,1.39,3.28,3.28,0,0,1-2.27.88Zm57.14-4c-15.12,0-30.74,0-45.78,1.1a18.93,18.93,0,0,0-4,.78c0-.12,0-.24,0-.36a79.39,79.39,0,0,1,8.64-22.4c1.37-2.38,4.48-4.23,6.29-4.23H53c1.21-.09,12.5-.88,35-.88s33.79.79,35,.88h.19c1.76,0,4.87,1.85,6.23,4.21a79.35,79.35,0,0,1,8.65,22.42c0,.12,0,.24,0,.36a18.72,18.72,0,0,0-4-.78C118.92,42,103,42,87.66,42Z" fill="#ffffff"></path><path d="M128,92H30a8,8,0,0,0-8,8v4.13A4,4,0,0,0,26.08,108H41.92A4,4,0,0,0,46,104.13V96h82a2,2,0,0,0,0-4ZM42,104H26v-4a4,4,0,0,1,4-4H42Z" fill="#ffffff"></path><path d="M106,76a2,2,0,0,0,0-4H70a2,2,0,0,0,0,4Z" fill="#ffffff"></path></svg>