<svg xmlns="http://www.w3.org/2000/svg" width="120" height="120" viewBox="0 0 120 120"><title>Mobiles-Tablets</title><path d="M104.14,44H96a2,2,0,0,0,0,4h8.14A3.86,3.86,0,0,1,108,51.86v60.28a3.86,3.86,0,0,1-3.86,3.86H77.86A3.86,3.86,0,0,1,74,112.14V51.86A3.86,3.86,0,0,1,77.86,48H84a8,8,0,0,0,8-8V7.43A7.43,7.43,0,0,0,84.57,0H15.43A7.43,7.43,0,0,0,8,7.43V112.57A7.43,7.43,0,0,0,15.43,120h88.71a7.87,7.87,0,0,0,7.86-7.86V51.86A7.87,7.87,0,0,0,104.14,44ZM12,112.57V7.43A3.44,3.44,0,0,1,15.43,4H84.57A3.44,3.44,0,0,1,88,7.43V40a4,4,0,0,1-4,4H77.86A7.87,7.87,0,0,0,70,51.86v60.28A7.78,7.78,0,0,0,71,116H15.43A3.44,3.44,0,0,1,12,112.57Z" fill="#ffffff"></path><circle cx="91" cy="108" r="2.5" fill="#ffffff"></circle><circle cx="50" cy="108" r="2.5" fill="#ffffff"></circle><path d="M96,54a2,2,0,0,0-2-2H88a2,2,0,0,0,0,4h6A2,2,0,0,0,96,54Z" fill="#ffffff"></path></svg>