<svg xmlns="http://www.w3.org/2000/svg" width="176" height="120" viewBox="0 0 176 120"><title>PC-Mac</title><path d="M174,93.94H162a2.06,2.06,0,0,0,0,4.12h9.69a7.43,7.43,0,0,1-7,5.88H11.35a7.43,7.43,0,0,1-7-5.88H150a2.11,2.11,0,0,0,.56-.09A8,8,0,0,0,158,90V21.38A9.4,9.4,0,0,0,148.61,12H27.39A9.4,9.4,0,0,0,18,21.38V93.94H2A2.06,2.06,0,0,0-.06,96c0,6.65,5.12,12.06,11.41,12.06h153.3c6.29,0,11.41-5.41,11.41-12.06A2.06,2.06,0,0,0,174,93.94ZM22,21.38A5.4,5.4,0,0,1,27.39,16H148.61A5.4,5.4,0,0,1,154,21.38V90a4,4,0,0,1-3.71,4,2.85,2.85,0,0,0-.29,0H22Z" fill="#ffffff"></path></svg>