<svg xmlns="http://www.w3.org/2000/svg" width="120" height="120" viewBox="0 0 120 120"><title>SoundSystems</title><path d="M89.46,0H30.54A8.55,8.55,0,0,0,22,8.54V111.46A8.55,8.55,0,0,0,30.54,120H89.46A8.55,8.55,0,0,0,98,111.46V8.54A8.55,8.55,0,0,0,89.46,0ZM94,111.46A4.55,4.55,0,0,1,89.46,116H30.54A4.55,4.55,0,0,1,26,111.46V8.54A4.55,4.55,0,0,1,30.54,4H89.46A4.55,4.55,0,0,1,94,8.54Z" fill="#ffffff"></path><path d="M60,42a12.05,12.05,0,0,0,4.82-1,2,2,0,0,0-1.6-3.67,8,8,0,1,1,4.13-4.13A2,2,0,0,0,71,34.8,12,12,0,1,0,60,42Z" fill="#ffffff"></path><path d="M73.84,91.68a2,2,0,0,0,2.77-.54,20,20,0,1,0-5.41,5.43A2,2,0,1,0,69,93.26a16,16,0,1,1,4.33-4.35A2,2,0,0,0,73.84,91.68Z" fill="#ffffff"></path><path d="M60,52a28,28,0,1,0,17,50.23,2,2,0,0,0-2.43-3.18A23.77,23.77,0,0,1,60,104a24,24,0,1,1,19.09-9.46A2,2,0,0,0,82.27,97,27.72,27.72,0,0,0,88,80,28,28,0,0,0,60,52Z" fill="#ffffff"></path></svg>