<svg xmlns="http://www.w3.org/2000/svg" width="176" height="120" viewBox="0 0 176 120"><title>TV-Gaming</title><path d="M174.62,107.25,171.7,93.68a12.46,12.46,0,0,0-5-7.3,2,2,0,1,0-2.33,3.24,8.48,8.48,0,0,1,3.39,4.9l2.92,13.57c.8,3.7-.05,6.83-2.07,7.59a6.22,6.22,0,0,1-6.95-2.19l-4-6.52a2,2,0,0,0-1.71-1H140a2,2,0,0,0-1.7.95l-4,6.52a5.67,5.67,0,0,1-6.54,2.2c-2.17-.82-3.23-4.08-2.48-7.59l2.92-13.57A8.79,8.79,0,0,1,136.29,88H156a8,8,0,0,0,8-8V10.28a2,2,0,0,0-2-2H14a2,2,0,0,0-2,2V98a2,2,0,0,0,2,2H66v4H60a2,2,0,0,0,0,4h56a2,2,0,0,0,0-4h-6v-4h12.89l-1.56,7.25c-1.19,5.51.91,10.63,5,12.17a9.55,9.55,0,0,0,11.35-3.84l3.45-5.57h13.77l3.4,5.56a10,10,0,0,0,8.44,4.44,9.46,9.46,0,0,0,3.33-.59C174,117.92,175.86,113,174.62,107.25ZM106,104H70v-4h36ZM16,96V12.28H160V80a4,4,0,0,1-4,4H136.29a12.85,12.85,0,0,0-12,9.68l-.5,2.32Z" fill="#ffffff"></path></svg>