<svg xmlns="http://www.w3.org/2000/svg" width="120" height="120" viewBox="0 0 120 120"><title>Voice</title><circle cx="89.87" cy="80" r="2.23" fill="#ffffff"></circle><circle cx="89.87" cy="68.12" r="2.23" fill="#ffffff"></circle><circle cx="89.87" cy="56.23" r="2.23" fill="#ffffff"></circle><circle cx="89.87" cy="44.34" r="2.23" fill="#ffffff"></circle><circle cx="77.92" cy="80" r="2.23" fill="#ffffff"></circle><circle cx="77.92" cy="68.12" r="2.23" fill="#ffffff"></circle><circle cx="77.92" cy="56.23" r="2.23" fill="#ffffff"></circle><circle cx="77.92" cy="44.34" r="2.23" fill="#ffffff"></circle><circle cx="77.92" cy="32.46" r="2.23" fill="#ffffff"></circle><circle cx="77.92" cy="20.57" r="2.23" fill="#ffffff"></circle><circle cx="65.97" cy="80" r="2.23" fill="#ffffff"></circle><circle cx="65.97" cy="68.12" r="2.23" fill="#ffffff"></circle><circle cx="65.97" cy="56.23" r="2.23" fill="#ffffff"></circle><circle cx="65.97" cy="44.34" r="2.23" fill="#ffffff"></circle><circle cx="65.97" cy="32.46" r="2.23" fill="#ffffff"></circle><circle cx="65.97" cy="20.57" r="2.23" fill="#ffffff"></circle><circle cx="54.03" cy="80" r="2.23" fill="#ffffff"></circle><circle cx="54.03" cy="68.12" r="2.23" fill="#ffffff"></circle><circle cx="54.03" cy="56.23" r="2.23" fill="#ffffff"></circle><circle cx="54.03" cy="44.34" r="2.23" fill="#ffffff"></circle><circle cx="54.03" cy="32.46" r="2.23" fill="#ffffff"></circle><circle cx="54.03" cy="20.57" r="2.23" fill="#ffffff"></circle><circle cx="42.08" cy="80" r="2.23" fill="#ffffff"></circle><circle cx="42.08" cy="68.12" r="2.23" fill="#ffffff"></circle><circle cx="42.08" cy="56.23" r="2.23" fill="#ffffff"></circle><circle cx="42.08" cy="44.34" r="2.23" fill="#ffffff"></circle><circle cx="42.08" cy="32.46" r="2.23" fill="#ffffff"></circle><circle cx="42.08" cy="20.57" r="2.23" fill="#ffffff"></circle><circle cx="84.08" cy="74.21" r="2.23" fill="#ffffff"></circle><circle cx="84.08" cy="62.32" r="2.23" fill="#ffffff"></circle><circle cx="84.08" cy="50.43" r="2.23" fill="#ffffff"></circle><circle cx="84.08" cy="38.55" r="2.23" fill="#ffffff"></circle><circle cx="84.08" cy="26.66" r="2.23" fill="#ffffff"></circle><circle cx="72.13" cy="74.21" r="2.23" fill="#ffffff"></circle><circle cx="72.13" cy="62.32" r="2.23" fill="#ffffff"></circle><circle cx="72.13" cy="50.43" r="2.23" fill="#ffffff"></circle><circle cx="72.13" cy="38.55" r="2.23" fill="#ffffff"></circle><circle cx="72.13" cy="26.66" r="2.23" fill="#ffffff"></circle><circle cx="60.18" cy="74.21" r="2.23" fill="#ffffff"></circle><circle cx="60.18" cy="62.32" r="2.23" fill="#ffffff"></circle><circle cx="60.18" cy="50.43" r="2.23" fill="#ffffff"></circle><circle cx="60.18" cy="38.55" r="2.23" fill="#ffffff"></circle><circle cx="60.18" cy="26.66" r="2.23" fill="#ffffff"></circle><circle cx="48.23" cy="74.21" r="2.23" fill="#ffffff"></circle><circle cx="48.23" cy="62.32" r="2.23" fill="#ffffff"></circle><circle cx="48.23" cy="50.43" r="2.23" fill="#ffffff"></circle><circle cx="48.23" cy="38.55" r="2.23" fill="#ffffff"></circle><circle cx="48.23" cy="26.66" r="2.23" fill="#ffffff"></circle><circle cx="36.28" cy="74.21" r="2.23" fill="#ffffff"></circle><circle cx="36.28" cy="62.32" r="2.23" fill="#ffffff"></circle><circle cx="36.28" cy="50.43" r="2.23" fill="#ffffff"></circle><circle cx="36.28" cy="38.55" r="2.23" fill="#ffffff"></circle><circle cx="36.28" cy="26.66" r="2.23" fill="#ffffff"></circle><circle cx="30.13" cy="80" r="2.23" fill="#ffffff"></circle><circle cx="30.13" cy="68.12" r="2.23" fill="#ffffff"></circle><circle cx="30.13" cy="56.23" r="2.23" fill="#ffffff"></circle><circle cx="30.13" cy="44.34" r="2.23" fill="#ffffff"></circle><path d="M91.6,10.91C90,4.89,83.6,0,77.42,0H42.58C36.4,0,30,4.89,28.39,10.94a200.51,200.51,0,0,0,0,98.53c1.64,6,8,10.91,14.18,10.91H77.42a13.52,13.52,0,0,0,5.38-1.18,2,2,0,0,0-1.6-3.67,9.68,9.68,0,0,1-3.78.85H42.58a11.5,11.5,0,0,1-10.31-7.93,196.46,196.46,0,0,1-4.16-75.07A2.23,2.23,0,1,0,28.44,31q.61-4.14,1.41-8.25l.28,0a2.22,2.22,0,0,0,.61-4.36c.47-2.17,1-4.33,1.52-6.48A11.5,11.5,0,0,1,42.58,4H77.42a11.49,11.49,0,0,1,10.31,7.93c.55,2.16,1,4.33,1.53,6.51a2.22,2.22,0,0,0,.61,4.36l.27,0Q91,26.88,91.56,31a2.22,2.22,0,1,0,.33,2.36,196.46,196.46,0,0,1-4.15,75,9.61,9.61,0,0,1-1.48,3,2,2,0,0,0,3.25,2.33,13.56,13.56,0,0,0,2.1-4.35A200.51,200.51,0,0,0,91.6,10.91Z" fill="#ffffff"></path></svg>