<svg xmlns="http://www.w3.org/2000/svg" width="120" height="120" viewBox="0 0 120 120"><title>Wearables</title><path d="M81.92,21.45A2,2,0,0,0,80,20V2a2,2,0,0,0-2-2H42a2,2,0,0,0-2,2V20a2,2,0,0,0-1.92,1.45L30.67,47.23a31.87,31.87,0,0,0,0,25.54l7.41,25.78A2,2,0,0,0,40,100v18a2,2,0,0,0,2,2H78a2,2,0,0,0,2-2V100a2,2,0,0,0,1.92-1.45l7.41-25.78a31.88,31.88,0,0,0,0-25.52ZM44,4H76V20H44ZM41.51,24h37l3.74,13-.47-.47A2,2,0,0,0,79,39.47,28,28,0,0,1,85.74,71a1.39,1.39,0,0,0-.12.28,28,28,0,0,1-51.23,0c0-.09-.08-.19-.13-.28a27.95,27.95,0,0,1,0-22c.05-.09.09-.19.13-.28A28,28,0,0,1,73.07,35.23a2,2,0,0,0,1.86-3.54A32,32,0,0,0,37.76,37ZM76,116H44V100H76Zm2.49-20h-37L37.76,83a31.93,31.93,0,0,0,44.48,0Z" fill="#ffffff"></path><path d="M94,53.39a2,2,0,0,0-2,2v9.22a2,2,0,1,0,4,0V55.39A2,2,0,0,0,94,53.39Z" fill="#ffffff"></path></svg>